<svg xmlns="http://www.w3.org/2000/svg" xmlns:xlink="http://www.w3.org/1999/xlink" version="1.1" width="256" height="256" viewBox="0 0 256 256" xml:space="preserve">
<g style="stroke: none; stroke-width: 0; stroke-dasharray: none; stroke-linecap: butt; stroke-linejoin: miter; stroke-miterlimit: 10; fill: none; fill-rule: nonzero; opacity: 1;" transform="translate(1.4065934065934016 1.4065934065934016) scale(2.81 2.81)">
	<path d="M 30.068 79.045 C 32.063 85.394 37.993 90 45 90 s 12.937 -4.606 14.932 -10.955 H 30.068 z" style="stroke: none; stroke-width: 1; stroke-dasharray: none; stroke-linecap: butt; stroke-linejoin: miter; stroke-miterlimit: 10; fill: rgb(0,0,0); fill-rule: nonzero; opacity: 1;" transform=" matrix(1 0 0 1 0 0) " stroke-linecap="round"/>
	<path d="M 86.952 73.996 c -3.949 -2.314 -6.706 -5.693 -6.706 -9.899 V 41.333 c 0 -17.848 -13.449 -32.698 -30.712 -34.942 V 4.534 C 49.534 2.04 47.494 0 45 0 c -2.494 0 -4.534 2.04 -4.534 4.534 v 1.857 C 23.203 8.635 9.754 23.485 9.754 41.333 v 22.764 c 0 4.206 -2.757 7.585 -6.706 9.899 c -1.225 0.718 -0.733 2.583 0.687 2.583 h 6.019 h 70.491 h 6.019 C 87.685 76.579 88.177 74.714 86.952 73.996 z" style="stroke: none; stroke-width: 1; stroke-dasharray: none; stroke-linecap: butt; stroke-linejoin: miter; stroke-miterlimit: 10; fill: rgb(0,0,0); fill-rule: nonzero; opacity: 1;" transform=" matrix(1 0 0 1 0 0) " stroke-linecap="round"/>
</g>
</svg>